<svg width="887.87284" height="569.68008" xmlns="http://www.w3.org/2000/svg">
 <title>proud_coder</title>

 <g>
  <title>background</title>
  <rect fill="none" id="canvas_background" height="402" width="582" y="-1" x="-1"/>
 </g>
 <g>
  <title>Layer 1</title>
  <rect id="svg_1" fill="#e6e6e6" height="391.60712" width="611.46146" y="0.34664" x="276.41138"/>
  <rect id="svg_2" fill="#fff" height="319.32231" width="576.49225" y="49.46394" x="293.89598"/>
  <rect id="svg_3" fill="#6c63ff" height="25.97712" width="611.46146" x="276.1503"/>
  <circle id="svg_4" fill="#fff" r="4.81466" cy="13.28088" cx="295.45441"/>
  <circle id="svg_5" fill="#fff" r="4.81466" cy="13.28088" cx="313.72965"/>
  <circle id="svg_6" fill="#fff" r="4.81466" cy="13.28088" cx="332.00489"/>
  <path id="svg_7" fill="#ccc" d="m707.266867,79.372602l-187.68714,0a1.66587,1.66587 0 0 1 0,-3.30318l187.68714,0a1.66587,1.66587 0 0 1 0,3.30318z"/>
  <path id="svg_8" fill="#ccc" d="m577.218217,97.540042l-119.33194,0a1.66587,1.66587 0 0 1 0,-3.30317l119.33194,0a1.66587,1.66587 0 0 1 0,3.30317z"/>
  <path id="svg_9" fill="#ccc" d="m707.266867,97.870372l-119.33195,0a1.66587,1.66587 0 0 1 0,-3.30317l119.332,0a1.66587,1.66587 0 0 1 0,3.30317l-0.00005,0z"/>
  <path id="svg_10" fill="#ccc" d="m577.507857,115.707512l-119.33194,0a1.66587,1.66587 0 0 1 0,-3.30317l119.33194,0a1.66587,1.66587 0 0 1 0,3.30317z"/>
  <path id="svg_11" fill="#ccc" d="m577.797497,133.874972l-119.33194,0a1.66587,1.66587 0 0 1 0,-3.30317l119.33194,0a1.66587,1.66587 0 0 1 0,3.30317z"/>
  <path id="svg_12" fill="#ccc" d="m631.960297,115.707512l-34.17759,0a1.66587,1.66587 0 0 1 0,-3.30317l34.17759,0a1.66587,1.66587 0 0 1 0,3.30317z"/>
  <path id="svg_13" fill="#ccc" d="m631.960297,133.544652l-34.17759,0a1.66587,1.66587 0 0 1 0,-3.30317l34.17759,0a1.66587,1.66587 0 0 1 0,3.30317z"/>
  <path id="svg_14" fill="#ccc" d="m689.309147,133.544652l-34.1776,0a1.66587,1.66587 0 0 1 0,-3.30317l34.1776,0a1.66587,1.66587 0 0 1 0,3.30317z"/>
  <path id="svg_15" fill="#ccc" d="m491.194947,79.372602l-34.1776,0a1.66587,1.66587 0 0 1 0,-3.30318l34.1776,0a1.66587,1.66587 0 0 1 0,3.30318z"/>
  <path id="svg_16" fill="#ccc" d="m576.783757,287.678392l-119.33195,0a1.66587,1.66587 0 0 1 0,-3.30317l119.332,0a1.66587,1.66587 0 0 1 0,3.30317l-0.00005,0z"/>
  <path id="svg_17" fill="#ccc" d="m576.204477,324.013312l-119.33195,0a1.66587,1.66587 0 0 1 0,-3.30318l119.332,0a1.66587,1.66587 0 0 1 0,3.30318l-0.00005,0z"/>
  <path id="svg_18" fill="#ccc" d="m576.494117,342.180772l-119.33195,0a1.66587,1.66587 0 0 1 0,-3.30318l119.332,0a1.66587,1.66587 0 0 1 0,3.30318l-0.00005,0z"/>
  <path id="svg_19" fill="#ccc" d="m627.470867,324.343632l-34.17759,0a1.66587,1.66587 0 0 1 0,-3.30318l34.17759,0a1.66587,1.66587 0 0 1 0,3.30318z"/>
  <path id="svg_20" fill="#ccc" d="m627.470867,342.180772l-34.17759,0a1.66587,1.66587 0 0 1 0,-3.30318l34.17759,0a1.66587,1.66587 0 0 1 0,3.30318z"/>
  <path id="svg_21" fill="#ccc" d="m684.819717,324.343632l-34.1776,0a1.66587,1.66587 0 0 1 0,-3.30318l34.1776,0a1.66587,1.66587 0 0 1 0,3.30318z"/>
  <path id="svg_22" fill="#ccc" d="m707.411687,305.845852l-187.68714,0a1.66587,1.66587 0 0 1 0,-3.30317l187.68714,0a1.66587,1.66587 0 0 1 0,3.30317z"/>
  <path id="svg_23" fill="#ccc" d="m491.339767,305.845852l-34.1776,0a1.66587,1.66587 0 0 1 0,-3.30317l34.1776,0a1.66587,1.66587 0 0 1 0,3.30317z"/>
  <polygon id="svg_24" fill="#e6e6e6" points="547.965 163.221 501.622 208.985 547.965 254.748 558.392 244.321 523.345 209.274 558.681 173.938 547.965 163.221"/>
  <polygon id="svg_25" fill="#e6e6e6" points="616.32 163.221 662.662 208.985 616.32 254.748 605.893 244.321 640.939 209.274 605.603 173.938 616.32 163.221"/>
  <polygon id="svg_26" fill="#6c63ff" points="547.965 163.221 501.622 208.985 547.965 254.748 558.392 244.321 523.345 209.274 558.681 173.938 547.965 163.221"/>
  <polygon id="svg_27" fill="#6c63ff" points="616.32 163.221 662.662 208.985 616.32 254.748 605.893 244.321 640.939 209.274 605.603 173.938 616.32 163.221"/>
  <path id="svg_28" fill="#e6e6e6" d="m469.602917,546.035442c14.41965,19.311 44.352,21.34353 44.352,21.34353s6.55352,-29.2768 -7.86613,-48.5878s-44.352,-21.34353 -44.352,-21.34353s-6.55352,29.27679 7.86613,48.5878z"/>
  <path id="svg_29" fill="#e6e6e6" d="m544.059647,553.295042c-9.5151,12.74275 -29.26658,14.08395 -29.26658,14.08395s-4.32447,-19.31887 5.19062,-32.06162s29.26658,-14.084 29.26658,-14.084s4.32447,19.31889 -5.19062,32.06167z"/>
  <polygon id="svg_30" fill="#ffb9b9" points="149.825 460.994 149.825 511.12 135.503 511.12 125.956 458.607 149.825 460.994"/>
  <polygon id="svg_31" fill="#ffb9b9" points="36.445 460.994 36.445 511.12 22.124 511.12 12.576 458.607 36.445 460.994"/>
  <path id="svg_32" fill="#ffb9b9" d="m111.997677,91.482272s-23.014,-16.54132 -25.89076,-8.63026s17.2605,22.29483 17.2605,22.29483l8.63026,-13.66457z"/>
  <path id="svg_33" fill="#2f2e41" d="m30.369857,112.698312c0,28.59815 12.31285,29.4867 32.37127,29.4867s40.2667,-0.88855 40.2667,-29.4867s-16.26056,-51.78152 -36.319,-51.78152s-36.31897,23.18337 -36.31897,51.78152z"/>
  <path id="svg_34" fill="#ffb9b9" d="m79.634227,112.338722s-2.87676,21.57563 10.78781,23.014s-44.58964,5.7535 -44.58964,5.7535s15.10294,-13.66457 7.19188,-24.45239s26.60995,-4.31511 26.60995,-4.31511z"/>
  <path id="svg_35" fill="#2f2e41" d="m152.272197,497.823402l5.03431,42.43208s25.17158,30.92508 9.34944,28.76751s-25.89076,0.45876 -25.89076,-2.418s-0.372,-13.155 -2.52959,-13.155s-3.9431,16.23013 -3.9431,16.23013s-6.47269,-0.48981 -7.19188,-1.209s-1.43837,-41.88017 -1.43837,-41.88017s-2.15757,-12.22619 2.15756,-17.9797s3.59594,-10.78781 3.59594,-10.78781l20.85645,-0.00004z"/>
  <path id="svg_36" fill="#2f2e41" d="m37.698967,497.356812l5.03431,42.43208s25.17158,30.92508 9.34945,28.76751s-25.89077,0.45876 -25.89077,-2.418s-0.372,-13.155 -2.52958,-13.155s-3.94311,16.23013 -3.94311,16.23013s-6.47269,-0.48981 -7.19188,-1.209s-1.43837,-41.88017 -1.43837,-41.88017s-2.15756,-12.22619 2.15756,-17.9797s3.59594,-10.78781 3.59594,-10.78781l20.85645,-0.00004z"/>
  <path id="svg_37" fill="#2f2e41" d="m114.874417,245.388472s23.014,65.44609 24.45239,79.82985s-1.43838,63.28853 -1.43838,63.28853s20.85645,84.49856 16.54132,85.21775s-28.3456,4.12889 -29.06478,0.533s-3.28315,-9.16321 -2.564,-11.32077s-2.15755,-10.06868 -2.15755,-14.38379s-10.08416,-26.96353 -9.365,-30.55947s-12.22619,-56.81584 -14.38376,-61.131s-7.91106,-34.521 -7.91106,-34.521s-32.36346,88.46011 -33.08264,90.61767s-3.59594,5.75351 -2.15757,6.47269s-2.15756,5.75351 -2.15756,5.75351s-7.45231,29.84028 -7.45231,31.27866s1.43838,17.71926 -1.43837,18.43845s-32.26142,0.67328 -33.6998,-4.361s15.26134,-63.33577 15.26134,-63.33577s12.2262,-36.67858 8.63026,-46.028s3.59594,-65.4461 6.47269,-69.76122s3.59594,-30.20589 3.59594,-30.20589l71.91884,-15.8222z"/>
  <circle id="svg_38" fill="#ffb9b9" r="23.01401" cy="101.1913" cx="67.04844"/>
  <path id="svg_39" fill="#6c63ff" d="m79.634227,130.318412s-25.89077,0.71919 -27.32914,-1.43837s-37.39777,5.03431 -37.39777,19.41807s20.85645,70.48041 20.85645,70.48041s7.91106,40.27451 5.7535,44.58964s79.82985,-9.34944 77.67229,-16.54132s-14.38376,-23.014 1.43837,-36.67858s22.29483,-28.04832 22.29483,-28.04832l-18.69889,-49.624s-18.69888,-2.87676 -23.014,0s-21.57564,-2.15753 -21.57564,-2.15753z"/>
  <path id="svg_40" fill="#6c63ff" d="m137.888417,185.695882l5.03432,-3.59594s46.7472,-48.90478 34.521,-58.25422s-30.20586,-17.97968 -38.83611,-18.69888s-15.82213,-7.19188 -15.82213,-7.19188s-9.34945,-16.54132 -16.54132,-5.7535s-15.10295,14.38375 -5.03432,17.97969s16.54132,2.15757 21.57564,5.75351s24.45238,9.34944 15.82213,11.507a77.19464,77.19464 0 0 0 -14.38376,5.03432l-9.34945,16.54132l23.014,36.67858z"/>
  <path id="svg_41" fill="#ffb9b9" d="m56.620207,307.238622s18.69889,27.32914 5.03432,25.89076s-20.13726,-20.13726 -20.13726,-20.13726l15.10294,-5.7535z"/>
  <path id="svg_42" fill="#6c63ff" d="m19.941627,144.702172l-5.03431,3.59594s-16.54132,90.61767 0,114.35086s17.9797,22.29483 17.9797,22.29483s2.87675,-2.15757 4.31512,12.22619s-0.71918,20.13726 3.59594,20.13726s23.7332,-4.31513 22.29483,-7.91107s-10.78782,-24.45238 -11.507,-29.4867s-4.31513,-16.54132 -5.7535,-23.014s6.47269,-10.06863 2.87675,-23.7332s-8.63026,-38.11695 -8.63026,-43.15127s-20.13727,-45.30884 -20.13727,-45.30884z"/>
  <path id="svg_43" fill="#2f2e41" d="m44.753617,80.694452c0,7.74533 10.62571,14.02416 23.73319,14.02416s25.17158,4.1494 25.17158,-3.59594s-12.06409,-24.45238 -25.17158,-24.45238s-23.73319,6.27883 -23.73319,14.02416z"/>
  <path id="svg_44" fill="#2f2e41" d="m102.792277,117.552042s0.96872,26.07138 -24.939,24.633s3.50113,-22.2854 3.50113,-22.2854l21.43787,-2.3476z"/>
 </g>
</svg>